
<svg xmlns="http://www.w3.org/2000/svg" version="1.1" xmlns:xlink="http://www.w3.org/1999/xlink" preserveAspectRatio="none" x="0px" y="0px" width="512px" height="512px" viewBox="0 0 512 512">
<defs/>

<g id="Layer_14">
<g>
<g>
<g>
<path fill="#1BC29A" stroke="none" d="
M 238.65 117.45
Q 231.45 124.65 231.45 134.8 231.45 144.95 238.65 152.15 242.0048828125 155.5048828125 246 157.3 249.9953125 155.5048828125 253.35 152.15 260.55 144.95 260.55 134.8 260.55 124.65 253.35 117.45 249.9953125 114.0953125 246 112.3 242.0048828125 114.0953125 238.65 117.45
M 231.45 134.8
Q 231.45 124.65 238.65 117.45 242.0048828125 114.0953125 246 112.3 241.420703125 110.25 236 110.25 225.85 110.25 218.65 117.45 211.45 124.65 211.45 134.8 211.45 144.95 218.65 152.15 225.85 159.35 236 159.35 241.420703125 159.35 246 157.3 242.0048828125 155.5048828125 238.65 152.15 231.45 144.95 231.45 134.8
M 287.35 199.15
L 268.3 199.15 176.05 212.05 176.05 225.75 194.4 224.8
Q 210.55 224.8 218.35 228.25 226.45 231.65 226.45 246.6
L 226.45 376.45 224 396.8
Q 221.55 404.3 210.8 407.25 200.05 410.5 175.3 410.5
L 175.3 423.4 339.7 423.4 339.7 410.5
Q 316 410.5 304.5 407.55 293 404.75 290.05 397.3
L 287.35 376.45 287.35 199.15 Z"/>
</g>
</g>

<g>
<path stroke="#1BC29A" stroke-width="41" stroke-linejoin="round" stroke-linecap="round" fill="none" d="
M 476 259.55
Q 476 349.2 412.6 412.6 349.2 476 259.55 476 169.9 476 106.5 412.6 43.1 349.2 43.1 259.55 43.1 169.9 106.5 106.5 169.9 43.1 259.55 43.1 349.2 43.1 412.6 106.5 476 169.9 476 259.55 Z
M 246 157.3
Q 242.0048828125 155.5048828125 238.65 152.15 231.45 144.95 231.45 134.8 231.45 124.65 238.65 117.45 242.0048828125 114.0953125 246 112.3 250.579296875 110.25 256 110.25 266.15 110.25 273.35 117.45 280.55 124.65 280.55 134.8 280.55 144.95 273.35 152.15 266.15 159.35 256 159.35 250.579296875 159.35 246 157.3 Z"/>
</g>
</g>
</g>
</svg>
