
<svg xmlns="http://www.w3.org/2000/svg" version="1.1" xmlns:xlink="http://www.w3.org/1999/xlink" preserveAspectRatio="none" x="0px" y="0px" width="512px" height="512px" viewBox="0 0 512 512">
<defs/>

<g id="Layer_8"/>

<g id="Layer_9"/>

<g id="Layer_10">
<g>
<g>
<g>
<path fill="#1BC29A" stroke="none" d="
M 92.65 131.75
Q 99.2 122.75 97.5 111.9 95.85 100.9 86.95 94.35 77.95 87.7 67.1 89.4 56.15 91.1 49.55 100 2.15 164.65 2.05 248.9 2.15 335.05 51.75 400.6 58.5 409.4 69.4 410.95 80.3 412.45 89.15 405.75 98 399 99.5 388.1 101.05 377.15 94.4 368.2 55.4 316.65 55.5 248.9 55.4 182.6 92.65 131.75
M 374.7 367.9
Q 374.75 367.9 374.75 367.85 423.95 318.6 423.95 248.85 423.95 179.1 374.75 129.75 325.6 80.45 256 80.45 186.45 80.45 137.3 129.75 88.1 179.1 88.1 248.85 88.1 318.6 137.3 367.9 186.45 417.25 256 417.25 325.6 417.25 374.7 367.9
M 445 89.4
Q 434.1 87.7 425.2 94.35 416.2 100.9 414.55 111.9 412.85 122.75 419.4 131.75 456.7 182.6 456.55 248.9 456.7 316.65 417.75 368.2 411.05 377.15 412.55 388.1 414.05 399 422.95 405.75 431.8 412.45 442.7 410.95 453.6 409.4 460.35 400.6 509.9 335.05 510.05 248.9 509.9 164.65 462.5 100 455.9 91.1 445 89.4 Z"/>
</g>
</g>
</g>
</g>
</svg>
