
<svg xmlns="http://www.w3.org/2000/svg" version="1.1" xmlns:xlink="http://www.w3.org/1999/xlink" preserveAspectRatio="none" x="0px" y="0px" width="512px" height="512px" viewBox="0 0 512 512">
<defs/>

<g id="Layer_2">
<g transform="matrix( 0.5682373046875, 0, 0, 0.5682373046875, -92.1,-37.75) ">
<g>
<g>
<path fill="#1BC29A" stroke="none" d="
M 802.2 494.4
Q 797.65 486.15 789.75 481.05
L 274.05 149.5
Q 265.55 144 255.4 143.65 245.3 143.3 236.45 148.15 227.6 153 222.45 161.7 217.25 170.4 217.25 180.5
L 217.25 843.6
Q 217.25 853.7 222.45 862.4 227.6 871.05 236.45 875.9 244.7 880.4 254.1 880.4 264.9 880.4 274.05 874.55
L 789.75 543
Q 797.65 537.95 802.2 529.7 806.7 521.45 806.7 512.05 806.7 502.65 802.2 494.4 Z"/>
</g>
</g>
</g>

<g transform="matrix( 1, 0, 0, 1.08184814453125, 1,-9.7) ">
<g>
<g>
<path fill="#1BC29A" stroke="none" d="
M 482 66.05
Q 482 46.05 462 46.05
L 402 46.05
Q 382 46.05 382 66.05
L 382 416
Q 382 436 402 436
L 462 436
Q 482 436 482 416
L 482 66.05 Z"/>
</g>
</g>

<g>
<path stroke="#000000" stroke-width="1" stroke-linejoin="round" stroke-linecap="round" fill="none" d="
M 402 46.05
L 462 46.05
Q 482 46.05 482 66.05
L 482 416
Q 482 436 462 436
L 402 436
Q 382 436 382 416
L 382 66.05
Q 382 46.05 402 46.05 Z"/>
</g>
</g>
</g>
</svg>
