
<svg xmlns="http://www.w3.org/2000/svg" version="1.1" xmlns:xlink="http://www.w3.org/1999/xlink" preserveAspectRatio="none" x="0px" y="0px" width="512px" height="512px" viewBox="0 0 512 512">
<defs/>

<g id="Layer_3">
<g transform="matrix( 1.2376251220703125, 0, 0, 1.08184814453125, -364.65,-9.7) ">
<g>
<g>
<path fill="#1BC29A" stroke="none" d="
M 482 66.05
Q 482 46.05 462 46.05
L 402 46.05
Q 382 46.05 382 66.05
L 382 416
Q 382 436 402 436
L 462 436
Q 482 436 482 416
L 482 66.05 Z"/>
</g>
</g>

<g transform="matrix( 0.8079986572265625, 0, 0, 0.9243316650390625, 294.6,8.95) ">
<path stroke="#000000" stroke-width="1" stroke-linejoin="round" stroke-linecap="round" fill="none" d="
M 132.87529907226565 40.11910705566406
L 207.1328063964844 40.11910705566406
Q 231.88530883789065 40.11910705566406 231.88530883789065 61.75606994628906
L 231.88530883789065 440.348828125
Q 231.88530883789065 461.985791015625 207.1328063964844 461.985791015625
L 132.87529907226565 461.985791015625
Q 108.1227966308594 461.985791015625 108.1227966308594 440.348828125
L 108.1227966308594 61.75606994628906
Q 108.1227966308594 40.11910705566406 132.87529907226565 40.11910705566406 Z"/>
</g>
</g>

<g transform="matrix( 1.23760986328125, 0, 0, 1.08184814453125, -184.65,-9.7) ">
<g>
<g>
<path fill="#1BC29A" stroke="none" d="
M 482 66.05
Q 482 46.05 462 46.05
L 402 46.05
Q 382 46.05 382 66.05
L 382 416
Q 382 436 402 436
L 462 436
Q 482 436 482 416
L 482 66.05 Z"/>
</g>
</g>

<g transform="matrix( 0.8079986572265625, 0, 0, 0.9243316650390625, 149.15,8.95) ">
<path stroke="#000000" stroke-width="1" stroke-linejoin="round" stroke-linecap="round" fill="none" d="
M 312.8691650390625 40.11910705566406
L 387.1257568359375 40.11910705566406
Q 411.8779541015625 40.11910705566406 411.8779541015625 61.75606994628906
L 411.8779541015625 440.348828125
Q 411.8779541015625 461.985791015625 387.1257568359375 461.985791015625
L 312.8691650390625 461.985791015625
Q 288.1169677734375 461.985791015625 288.1169677734375 440.348828125
L 288.1169677734375 61.75606994628906
Q 288.1169677734375 40.11910705566406 312.8691650390625 40.11910705566406 Z"/>
</g>
</g>
</g>
</svg>
