
<svg xmlns="http://www.w3.org/2000/svg" version="1.1" xmlns:xlink="http://www.w3.org/1999/xlink" preserveAspectRatio="none" x="0px" y="0px" width="512px" height="512px" viewBox="0 0 512 512">
<defs/>

<g id="play_svg">
<g transform="matrix( 0.653106689453125, 0, 0, 0.653106689453125, -25.6,-81.25) ">
<g>
<g>
<path fill="#1BC29A" stroke="none" d="
M 802.2 494.4
Q 797.65 486.15 789.75 481.05
L 274.05 149.5
Q 265.55 144 255.4 143.65 245.3 143.3 236.45 148.15 227.6 153 222.45 161.7 217.25 170.4 217.25 180.5
L 217.25 843.6
Q 217.25 853.7 222.45 862.4 227.6 871.05 236.45 875.9 244.7 880.4 254.1 880.4 264.9 880.4 274.05 874.55
L 789.75 543
Q 797.65 537.95 802.2 529.7 806.7 521.45 806.7 512.05 806.7 502.65 802.2 494.4 Z"/>
</g>
</g>
</g>
</g>
</svg>
