
<svg xmlns="http://www.w3.org/2000/svg" version="1.1" xmlns:xlink="http://www.w3.org/1999/xlink" preserveAspectRatio="none" x="0px" y="0px" width="512px" height="512px" viewBox="0 0 512 512">
<defs/>

<g id="Layer_6">
<g>
<g>
<path stroke="#1BC29A" stroke-width="35" stroke-linejoin="round" stroke-linecap="round" fill="none" d="
M 310.4 248.8
Q 310.4 307.95 268.55 349.7 226.8 391.55 167.65 391.55 108.55 391.55 66.75 349.7 24.95 307.95 24.95 248.8 24.95 189.7 66.75 147.85 108.55 106.1 167.65 106.1 226.8 106.1 268.55 147.85 310.4 189.7 310.4 248.8 Z"/>
</g>
</g>
</g>

<g id="Layer_7">
<g>
<g>
<path stroke="#1BC29A" stroke-width="35" stroke-linejoin="round" stroke-linecap="round" fill="none" d="
M 485.4 248.8
Q 485.4 307.95 443.55 349.7 401.8 391.55 342.65 391.55 283.55 391.55 241.75 349.7 199.95 307.95 199.95 248.8 199.95 189.7 241.75 147.85 283.55 106.1 342.65 106.1 401.8 106.1 443.55 147.85 485.4 189.7 485.4 248.8 Z"/>
</g>
</g>
</g>
</svg>
