
<svg xmlns="http://www.w3.org/2000/svg" version="1.1" xmlns:xlink="http://www.w3.org/1999/xlink" preserveAspectRatio="none" x="0px" y="0px" width="512px" height="512px" viewBox="0 0 512 512">
<defs/>

<g id="Layer_12">
<g>
<g>
<g>
<path fill="#1BC29A" stroke="none" d="
M 28.15 178.95
Q 23.29921875 183.85234375 23.3 190.75
L 23.3 318
Q 23.29921875 324.89765625 28.15 329.75 33.05234375 334.65078125 39.95 334.65
L 140.3 334.65 251.65 430.95
Q 256.696875 435.3029296875 263.35 434.95 269.99921875 434.651953125 274.6 429.8 279.2 425.0025390625 279.2 418.35
L 279.2 331.2 122.1 174.1 39.95 174.1
Q 33.05234375 174.09921875 28.15 178.95
M 263.35 75.15
Q 256.6966796875 74.847265625 251.65 79.2
L 201.05 122.95 279.2 201.1 279.2 91.8
Q 279.2 85.1474609375 274.6 80.3 269.9994140625 75.498046875 263.35 75.15
M 356.25 278.15
Q 357.9515625 267.003515625 357.95 255.35 357.955859375 211.518359375 333.85 174.85 330.0513671875 169.094921875 323.3 167.7 316.5943359375 166.3005859375 310.8 170.1 305.0529296875 173.91171875 303.65 180.65 302.2498046875 187.3759765625 306 193.15 322.1009765625 217.6119140625 324.3 246.2
L 356.25 278.15
M 380.7 126.8
Q 376.587109375 121.286328125 369.8 120.25 363.0091796875 119.20625 357.45 123.3 351.889453125 127.4037109375 350.85 134.2 349.815234375 140.99375 353.9 146.55 371.5529296875 170.5537109375 380.7 198.75
L 380.7 198.7
Q 389.644921875 226.3271484375 389.65 255.35 389.6455078125 280.5998046875 382.85 304.75
L 409.25 331.15
Q 410.9111328125 326.75234375 412.35 322.25
L 412.4 322.2
Q 422.9548828125 289.6265625 422.95 255.35 422.9548828125 221.0734375 412.4 188.45
L 412.35 188.45
Q 401.546875 155.1462890625 380.7 126.8
M 423.6 82.9
Q 419.2560546875 77.5453125 412.4 76.8 405.5994140625 76.0615234375 400.2 80.4 394.8443359375 84.7400390625 394.1 91.55 393.3654296875 98.399609375 397.65 103.75 423.9681640625 136.51953125 437.65 176.05 451.0046875 214.55390625 451 255.35 451.005078125 296.194921875 437.65 334.7 434.51015625 343.8166015625 430.65 352.55
L 455.7 377.6
Q 463.387890625 362.1255859375 469.1 345.6 484.2947265625 301.805078125 484.3 255.35 484.2951171875 208.94609375 469.1 165.15 453.5314453125 120.1791015625 423.6 82.9 Z"/>
</g>
</g>
</g>
</g>

<g id="Layer_13">
<g>
<g>
<path stroke="#1BC29A" stroke-width="51" stroke-linejoin="round" stroke-linecap="round" fill="none" d="
M 73.2 60.15
L 457 443.95"/>
</g>
</g>
</g>

<g id="Layer_14"/>
</svg>
